Camp Rock 2 The Final Jam (2010) 1080P MKV AC3+DTS NLSub

Sample Inside: Yes ** The Final Jam (2010) Sample.mkv **


PLOT

The sequel to Camp Rock follows the life of Mitchie, Shane, Jason, Nate and their friends 
when they return to Camp Rock for a great summer with music and fun.


MM:    http://www.moviemeter.nl/film/63435

IMDB:    http://www.imdb.com/title/tt1252380/

INFO

Source.......: 1080P BluRay 
FRAME RATE...: 23.976Fps 
VIDEO CODEC..: X264
BITRATE......: 12497 KB/S
AUDIO CODEC..: DTS
AUDIO CODEC..: AC3  
RESOLUTION...: 1920x1080
RUNTIME......: 97 MINS 
GENERE.......: Comedy | Family | Musical | Romance
LANGUAGE.....: English
SUBTITLES....: Dutch

Thanks to Bradje

Enjoy This Nice Release


KMPlayer Spec


      Format : Matroska
      File size : 10.4 GiB
      Duration : 1h 44mn
      Overall bit rate : 14.3 Mbps :thumbsup:
      Encoded date : UTC 2010-09-09 19:45:51
      Writing application : mkvmerge v3.3.0 ('Language') built on Mar 24 2010 14:59:24
      Writing library : libebml v0.8.0 + libmatroska v0.9.0
   Video #1
      ID : 1
      Format : AVC
      Format/Info : Advanced Video Codec
      Format profile : High@L4.1
      Format settings, CABAC : Yes
      Format settings, ReFrames : 4 frames
      Muxing mode : Container profile=Unknown@4.1
      Codec ID : V_MPEG4/ISO/AVC
      Duration : 1h 44mn
      Bit rate : 11.9 Mbps
      Width : 1 920 pixels
      Height : 1 080 pixels
      Display aspect ratio : 16:9
      Frame rate : 23.976 fps
      Resolution : 24 bits
      Colorimetry : 4:2:0
      Scan type : Progressive
      Bits/(Pixel*Frame) : 0.239
      Stream size : 8.65 GiB (83%)
      Title : x264
      Writing library : x264 core 104 r1713 c276662
      Encoding settings : cabac=1 / ref=4 / deblock=1:0:0 / analyse=0x3:0x113 / me=umh / subme=7 / 
psy=1 / psy_rd=1.00:0.00 / mixed_ref=0 / me_range=16 / chroma_me=1 / trellis=1 / 8x8dct=1 / cqm=0 /
deadzone=21,11 / fast_pskip=0 / chroma_qp_offset=-2 / threads=9 / sliced_threads=0 / nr=0 / 
decimate=1 / interlaced=0 / constrained_intra=0 / bframes=3 / b_pyramid=2 / b_adapt=1 / b_bias=0 / 
direct=1 / weightb=1 / open_gop=0 / weightp=2 / keyint=250 / keyint_min=23 / scenecut=40 / 
intra_refresh=0 / rc_lookahead=40 / rc=crf / mbtree=1 / crf=20.0 / qcomp=0.60 / qpmin=10 / 
qpmax=51 / qpstep=4 / ip_ratio=1.40 / aq=1:1.00
      Language : English
   Audio #2
      ID : 2
      Format : AC-3
      Format/Info : Audio Coding 3
      Codec ID : A_AC3
      Duration : 1h 44mn
      Bit rate mode : Constant
      Bit rate : 640 Kbps
      Channel(s) : 6 channels
      Channel positions : Front: L C R, Surround: L R, LFE
      Sampling rate : 48.0 KHz
      Stream size : 477 MiB (4%)
      Title : AC3
      Language : English
   Audio #3
      ID : 3
      Format : DTS
      Format/Info : Digital Theater Systems
      Codec ID : A_DTS
      Duration : 1h 44mn
      Bit rate mode : Constant
      Bit rate : 1 510 Kbps
      Channel(s) : 6 channels
      Channel positions : Front: L C R, Surround: L R, LFE
      Sampling rate : 48.0 KHz
      Resolution : 24 bits
      Stream size : 1.10 GiB (11%)
      Title : DTS
      Language : English
   Text #4
      ID : 4
      Format : UTF-8
      Codec ID : S_TEXT/UTF8
      Codec ID/Info : UTF-8 Plain Text
      Title : Subtitles
      Language : Dutch